<svg width="109" height="264" viewBox="0 0 109 264" fill="none" xmlns="http://www.w3.org/2000/svg">
<rect width="6.7414" height="6.7414" fill="#3C3C3C"/>
<rect x="23.1738" width="6.7414" height="6.7414" fill="#3C3C3C"/>
<rect x="46.3477" width="6.7414" height="6.7414" fill="#3C3C3C"/>
<rect x="69.5215" width="6.7414" height="6.7414" fill="#3C3C3C"/>
<rect x="92.6934" width="6.7414" height="6.7414" fill="#3C3C3C"/>
<rect y="36.7422" width="6.7414" height="6.7414" fill="#3C3C3C"/>
<rect x="23.1738" y="36.7422" width="6.7414" height="6.7414" fill="#3C3C3C"/>
<rect x="46.3477" y="36.7422" width="6.7414" height="6.7414" fill="#3C3C3C"/>
<rect x="69.5215" y="36.7422" width="6.7414" height="6.7414" fill="#3C3C3C"/>
<rect x="92.6934" y="36.7422" width="6.7414" height="6.7414" fill="#3C3C3C"/>
<rect y="73.4824" width="6.7414" height="6.7414" fill="#3C3C3C"/>
<rect x="23.1738" y="73.4824" width="6.7414" height="6.7414" fill="#3C3C3C"/>
<rect x="46.3477" y="73.4824" width="6.7414" height="6.7414" fill="#3C3C3C"/>
<rect x="69.5215" y="73.4824" width="6.7414" height="6.7414" fill="#3C3C3C"/>
<rect x="92.6934" y="73.4824" width="6.7414" height="6.7414" fill="#3C3C3C"/>
<rect y="110.225" width="6.7414" height="6.7414" fill="#3C3C3C"/>
<rect x="23.1738" y="110.225" width="6.7414" height="6.7414" fill="#3C3C3C"/>
<rect x="46.3477" y="110.225" width="6.7414" height="6.7414" fill="#3C3C3C"/>
<rect x="69.5215" y="110.225" width="6.7414" height="6.7414" fill="#3C3C3C"/>
<rect x="92.6934" y="110.225" width="6.7414" height="6.7414" fill="#3C3C3C"/>
<rect y="146.965" width="6.7414" height="6.7414" fill="#3C3C3C"/>
<rect x="23.1738" y="146.965" width="6.7414" height="6.7414" fill="#3C3C3C"/>
<rect x="46.3477" y="146.965" width="6.7414" height="6.7414" fill="#3C3C3C"/>
<rect x="69.5215" y="146.965" width="6.7414" height="6.7414" fill="#3C3C3C"/>
<rect x="92.6934" y="146.965" width="6.7414" height="6.7414" fill="#3C3C3C"/>
<rect y="183.707" width="6.7414" height="6.7414" fill="#3C3C3C"/>
<rect x="23.1738" y="183.707" width="6.7414" height="6.7414" fill="#3C3C3C"/>
<rect x="46.3477" y="183.707" width="6.7414" height="6.7414" fill="#3C3C3C"/>
<rect x="69.5215" y="183.707" width="6.7414" height="6.7414" fill="#3C3C3C"/>
<rect x="92.6934" y="183.707" width="6.7414" height="6.7414" fill="#3C3C3C"/>
<rect y="220.449" width="6.7414" height="6.7414" fill="#3C3C3C"/>
<rect x="23.1738" y="220.449" width="6.7414" height="6.7414" fill="#3C3C3C"/>
<rect x="46.3477" y="220.449" width="6.7414" height="6.7414" fill="#3C3C3C"/>
<rect x="69.5215" y="220.449" width="6.7414" height="6.7414" fill="#3C3C3C"/>
<rect x="92.6934" y="220.449" width="6.7414" height="6.7414" fill="#3C3C3C"/>
<rect y="257.189" width="6.7414" height="6.7414" fill="#3C3C3C"/>
<rect x="23.1738" y="257.189" width="6.7414" height="6.7414" fill="#3C3C3C"/>
<rect x="46.3477" y="257.189" width="6.7414" height="6.7414" fill="#3C3C3C"/>
<rect x="69.5215" y="257.189" width="6.7414" height="6.7414" fill="#3C3C3C"/>
<rect x="92.6934" y="257.189" width="6.7414" height="6.7414" fill="#3C3C3C"/>
</svg>
