<svg width="169" height="154" viewBox="0 0 169 154" fill="none" xmlns="http://www.w3.org/2000/svg">
<rect width="6.7414" height="6.7414" fill="#3C3C3C"/>
<rect x="23.1738" width="6.7414" height="6.7414" fill="#3C3C3C"/>
<rect x="46.3477" width="6.7414" height="6.7414" fill="#3C3C3C"/>
<rect x="69.5215" width="6.7414" height="6.7414" fill="#3C3C3C"/>
<rect x="92.6934" width="6.7414" height="6.7414" fill="#3C3C3C"/>
<rect x="115.867" width="6.7414" height="6.7414" fill="#3C3C3C"/>
<rect x="139.041" width="6.7414" height="6.7414" fill="#3C3C3C"/>
<rect x="162.215" width="6.7414" height="6.7414" fill="#3C3C3C"/>
<rect y="36.7422" width="6.7414" height="6.7414" fill="#3C3C3C"/>
<rect x="23.1738" y="36.7422" width="6.7414" height="6.7414" fill="#3C3C3C"/>
<rect x="46.3477" y="36.7422" width="6.7414" height="6.7414" fill="#3C3C3C"/>
<rect x="69.5215" y="36.7422" width="6.7414" height="6.7414" fill="#3C3C3C"/>
<rect x="92.6934" y="36.7422" width="6.7414" height="6.7414" fill="#3C3C3C"/>
<rect x="115.867" y="36.7422" width="6.7414" height="6.7414" fill="#3C3C3C"/>
<rect x="139.041" y="36.7422" width="6.7414" height="6.7414" fill="#3C3C3C"/>
<rect x="162.215" y="36.7422" width="6.7414" height="6.7414" fill="#3C3C3C"/>
<rect y="73.4824" width="6.7414" height="6.7414" fill="#3C3C3C"/>
<rect x="23.1738" y="73.4824" width="6.7414" height="6.7414" fill="#3C3C3C"/>
<rect x="46.3477" y="73.4824" width="6.7414" height="6.7414" fill="#3C3C3C"/>
<rect x="69.5215" y="73.4824" width="6.7414" height="6.7414" fill="#3C3C3C"/>
<rect x="92.6934" y="73.4824" width="6.7414" height="6.7414" fill="#3C3C3C"/>
<rect x="115.867" y="73.4824" width="6.7414" height="6.7414" fill="#3C3C3C"/>
<rect x="139.041" y="73.4824" width="6.7414" height="6.7414" fill="#3C3C3C"/>
<rect x="162.215" y="73.4824" width="6.7414" height="6.7414" fill="#3C3C3C"/>
<rect y="110.225" width="6.7414" height="6.7414" fill="#3C3C3C"/>
<rect x="23.1738" y="110.225" width="6.7414" height="6.7414" fill="#3C3C3C"/>
<rect x="46.3477" y="110.225" width="6.7414" height="6.7414" fill="#3C3C3C"/>
<rect x="69.5215" y="110.225" width="6.7414" height="6.7414" fill="#3C3C3C"/>
<rect x="92.6934" y="110.225" width="6.7414" height="6.7414" fill="#3C3C3C"/>
<rect x="115.867" y="110.225" width="6.7414" height="6.7414" fill="#3C3C3C"/>
<rect x="139.041" y="110.225" width="6.7414" height="6.7414" fill="#3C3C3C"/>
<rect x="162.215" y="110.225" width="6.7414" height="6.7414" fill="#3C3C3C"/>
<rect y="146.965" width="6.7414" height="6.7414" fill="#3C3C3C"/>
<rect x="23.1738" y="146.965" width="6.7414" height="6.7414" fill="#3C3C3C"/>
<rect x="46.3477" y="146.965" width="6.7414" height="6.7414" fill="#3C3C3C"/>
<rect x="69.5215" y="146.965" width="6.7414" height="6.7414" fill="#3C3C3C"/>
<rect x="92.6934" y="146.965" width="6.7414" height="6.7414" fill="#3C3C3C"/>
<rect x="115.867" y="146.965" width="6.7414" height="6.7414" fill="#3C3C3C"/>
<rect x="139.041" y="146.965" width="6.7414" height="6.7414" fill="#3C3C3C"/>
<rect x="162.215" y="146.965" width="6.7414" height="6.7414" fill="#3C3C3C"/>
</svg>
