<svg width="50" height="50" viewBox="0 0 50 50" fill="none" xmlns="http://www.w3.org/2000/svg">
<circle cx="25" cy="25" r="25" fill="#FAC80A"/>
<path fill-rule="evenodd" clip-rule="evenodd" d="M24.2376 10.8156C23.8348 11.2642 23.4811 11.661 23.4517 11.6974L23.3981 11.7637L23.4454 12.1824C23.4983 12.6513 23.4927 12.6008 23.6684 14.1872C23.8255 15.6055 23.9806 16.9918 24.0744 17.816C24.1133 18.158 24.1404 18.4463 24.1346 18.4568C24.1288 18.4673 24.0876 18.476 24.0431 18.4763C23.9985 18.4766 23.8708 18.4929 23.7593 18.5125C23.6478 18.5322 23.5523 18.544 23.547 18.5388C23.5418 18.5336 23.5221 18.4345 23.5032 18.3186C23.4842 18.2027 23.4344 17.8966 23.3925 17.6384C23.3161 17.1681 23.1037 15.8759 22.7441 13.6937C22.6385 13.0525 22.548 12.5238 22.5431 12.5189C22.5344 12.5101 21.6958 13.5269 21.6589 13.5909C21.6486 13.6089 21.9189 14.7468 22.2597 16.1195C22.6005 17.4923 22.8831 18.6368 22.8877 18.663C22.8944 18.7008 22.8698 18.7182 22.7692 18.7473C22.4561 18.8379 22.1034 18.9776 21.719 19.1632C21.4904 19.2737 21.2946 19.364 21.2841 19.364C21.2642 19.364 21.2162 19.2859 20.8397 18.6408C20.7176 18.4314 20.5865 18.2087 20.5484 18.1459C20.5104 18.0831 20.319 17.7577 20.1231 17.4227C19.9272 17.0877 19.5093 16.3742 19.1943 15.837L18.6217 14.8604L17.9162 14.7817C17.5282 14.7384 17.2078 14.705 17.2042 14.7075C17.2006 14.7099 17.2343 14.7623 17.2792 14.8239C17.324 14.8854 17.4383 15.0471 17.5332 15.1832C17.8833 15.6853 18.0786 15.9644 19.3661 17.8022C20.0892 18.8345 20.6859 19.6922 20.6921 19.7083C20.7046 19.7407 20.2582 20.0841 20.2214 20.0705C20.2011 20.0629 19.8029 19.5675 18.0628 17.3846C17.8458 17.1125 17.6492 16.8669 17.6259 16.839C17.6026 16.8111 17.2378 16.3543 16.8152 15.8239C16.3926 15.2936 16.0362 14.8525 16.0232 14.8437C16.0101 14.8349 15.8494 14.8203 15.666 14.8111C15.4826 14.802 15.1784 14.7838 14.9899 14.7707C14.2073 14.7164 13.6923 14.6894 13.6797 14.702C13.6724 14.7094 13.6787 14.9477 13.6938 15.2316C13.7089 15.5155 13.7325 15.9591 13.7461 16.2173C13.7597 16.4755 13.7781 16.7731 13.7868 16.8787L13.8027 17.0706L16.4253 19.1626C17.8678 20.3132 19.0486 21.2606 19.0494 21.2681C19.0514 21.2864 18.7205 21.7352 18.6995 21.7426C18.683 21.7485 18.3843 21.537 16.7031 20.3295C15.7665 19.6568 14.7573 18.9325 14.1309 18.4837C13.913 18.3275 13.731 18.2034 13.7265 18.2079C13.7221 18.2124 13.7307 18.3345 13.7458 18.4792C13.8002 19.0009 13.8226 19.2278 13.8388 19.4202L13.8551 19.616L14.5812 20.0531C14.9805 20.2935 15.9896 20.9 16.8237 21.401C17.6578 21.9019 18.3402 22.3216 18.3402 22.3336C18.3402 22.3457 18.2732 22.4903 18.1913 22.6551C18.0224 22.9952 17.8807 23.343 17.7902 23.64C17.6997 23.9366 17.6866 23.9626 17.6357 23.9468C17.5939 23.9339 17.1769 23.8243 16.3732 23.6151C16.1777 23.5642 15.8894 23.4891 15.7323 23.4481C15.5753 23.4071 15.3154 23.3393 15.1549 23.2974C14.9943 23.2555 14.7345 23.1876 14.5775 23.1464C13.0642 22.7497 12.621 22.6398 12.5956 22.6549C12.5669 22.6721 11.7556 23.3168 11.6526 23.4042C11.6245 23.4281 11.5787 23.4644 11.5508 23.4849C11.5091 23.5155 11.5069 23.5245 11.5381 23.5351C11.559 23.5422 12.3357 23.6813 13.264 23.8441C14.1923 24.007 15.1346 24.1723 15.3579 24.2115C15.5813 24.2508 15.9296 24.3119 16.1321 24.3473C16.3345 24.3828 16.6029 24.4299 16.7285 24.452C16.8541 24.4741 17.0811 24.5141 17.2329 24.5408C17.3847 24.5676 17.5155 24.596 17.5235 24.604C17.5315 24.612 17.5244 24.6984 17.5076 24.7959C17.4909 24.8934 17.4771 25.0101 17.4769 25.0552C17.4766 25.1003 17.4674 25.1515 17.4563 25.1689C17.4405 25.1939 17.1214 25.1653 15.9782 25.0366C12.2139 24.613 11.0561 24.4845 10.9036 24.4735L10.7386 24.4615L10.3198 24.8347C10.0895 25.0399 9.80965 25.2881 9.69798 25.3862C9.5863 25.4843 9.39947 25.6511 9.28277 25.7569C9.16609 25.8627 9.05475 25.9584 9.0353 25.9695C9.01589 25.9807 9 25.9995 9 26.0113C9 26.0311 10.5506 27.4358 10.695 27.5467C10.7676 27.6025 10.7968 27.6024 11.2843 27.5458C11.4588 27.5256 11.71 27.4976 11.8425 27.4836C11.975 27.4697 12.1863 27.4463 12.312 27.4318C12.4378 27.4172 12.632 27.3953 12.7437 27.3831C12.8554 27.371 13.1066 27.3431 13.3021 27.3212C13.4975 27.2992 14.377 27.2012 15.2564 27.1034C16.1359 27.0055 16.9868 26.9102 17.1473 26.8915C17.3078 26.8729 17.4477 26.8624 17.4582 26.8681C17.4687 26.8738 17.4775 26.9149 17.4777 26.9595C17.478 27.004 17.4943 27.1317 17.514 27.2432C17.5336 27.3547 17.5452 27.4504 17.5397 27.4559C17.5342 27.4614 17.2923 27.5046 17.0022 27.5518C14.3645 27.981 11.5283 28.4502 11.5197 28.4588C11.5151 28.4634 11.6173 28.5538 11.7468 28.6599C12.3994 29.1941 12.6076 29.3624 12.6161 29.3624C12.631 29.3624 17.6389 28.1186 17.6749 28.1059C17.6929 28.0996 17.7119 28.1085 17.7171 28.1257C17.8799 28.6632 17.9889 28.9403 18.2151 29.3915C18.2997 29.5601 18.3638 29.711 18.3577 29.7269C18.3516 29.7428 18.1767 29.854 17.969 29.9741C17.5649 30.2078 17.4817 30.2565 16.5635 30.7958C15.8791 31.1979 14.6435 31.9218 14.1774 32.1938L13.8598 32.3791L13.8006 32.9453C13.768 33.2567 13.7322 33.5743 13.721 33.6511C13.7098 33.7278 13.7034 33.7936 13.7067 33.7972C13.71 33.8007 13.7631 33.767 13.8247 33.7222C13.8862 33.6774 14.0479 33.5632 14.1841 33.4683C14.8025 33.0372 14.9927 32.9041 16.0432 32.1676C16.6574 31.737 17.2342 31.3329 17.325 31.2697C17.4157 31.2065 17.757 30.9675 18.0834 30.7387C18.4098 30.5098 18.6909 30.3172 18.708 30.3106C18.7418 30.2976 19.0864 30.7422 19.0722 30.7804C19.0645 30.8008 18.2662 31.4427 16.4486 32.8896C16.1419 33.1338 15.8681 33.3528 15.8402 33.3764C15.8123 33.4 15.3611 33.7607 14.8376 34.1781C14.3141 34.5955 13.8729 34.9531 13.8571 34.9728C13.8402 34.9939 13.8163 35.2238 13.7993 35.5289C13.772 36.0178 13.7448 36.4639 13.7055 37.0706L13.6885 37.3307L13.7745 37.3305C13.8218 37.3303 14.0432 37.3194 14.2665 37.3061C14.4899 37.2928 14.9068 37.2702 15.193 37.2559C15.4791 37.2415 15.7938 37.2228 15.8922 37.2143L16.0712 37.1988L18.1638 34.5765C19.3148 33.1343 20.2625 31.9535 20.27 31.9525C20.3008 31.9487 20.7385 32.2897 20.7361 32.3158C20.7339 32.3403 20.2939 32.96 19.0223 34.7296C18.8618 34.9529 18.407 35.5867 18.0115 36.138C17.616 36.6893 17.271 37.1678 17.2449 37.2013C17.2187 37.2349 17.2018 37.2668 17.2073 37.2722C17.2127 37.2777 17.4499 37.2582 17.7343 37.229C18.0187 37.1997 18.3335 37.1691 18.4339 37.1609L18.6164 37.1459L19.0465 36.4326C19.283 36.0403 19.8848 35.0398 20.3836 34.2094C20.8825 33.3789 21.3005 32.6888 21.3125 32.6758C21.3256 32.6615 21.4834 32.724 21.7091 32.8328C22.0979 33.0203 22.3638 33.1276 22.6676 33.2198C22.9379 33.3018 22.9646 33.3157 22.9491 33.3658C22.9362 33.4076 22.8266 33.8245 22.6174 34.6281C22.5665 34.8235 22.4913 35.1118 22.4503 35.2688C22.4093 35.4258 22.3415 35.6856 22.2996 35.8462C22.2577 36.0067 22.1898 36.2664 22.1486 36.4235C21.7514 37.9379 21.6419 38.3796 21.6573 38.405C21.6747 38.4338 22.3196 39.2453 22.4065 39.3477C22.4303 39.3758 22.4666 39.4217 22.4871 39.4496C22.5177 39.4913 22.5267 39.4935 22.5373 39.4623C22.5477 39.4315 23.0772 36.4415 23.3282 34.996C23.3841 34.6741 23.4168 34.4875 23.5411 33.7812C23.569 33.6224 23.5984 33.486 23.6064 33.478C23.6145 33.4699 23.7008 33.4771 23.7984 33.4938C23.8959 33.5105 24.0126 33.5244 24.0577 33.5246C24.1028 33.5248 24.1541 33.5341 24.1716 33.5452C24.1967 33.5611 24.1572 33.9783 23.9869 35.4925C23.8677 36.5524 23.7528 37.5794 23.7316 37.7748C23.6752 38.2933 23.6564 38.4612 23.5679 39.2339C23.5239 39.6178 23.4825 40.006 23.4759 40.0967L23.464 40.2617L23.8372 40.6804C24.0425 40.9107 24.2907 41.1905 24.3888 41.3021C24.4869 41.4138 24.6537 41.6006 24.7595 41.7173C24.8654 41.8339 24.9611 41.9453 24.9722 41.9647C24.9834 41.9841 25.0021 42 25.0138 42C25.0255 42 25.3187 41.6831 25.6652 41.2958C26.0117 40.9085 26.3456 40.5378 26.4073 40.4721C26.5731 40.2953 26.6002 40.248 26.593 40.1484C26.5894 40.0991 26.5577 39.8017 26.5226 39.4877C26.4875 39.1737 26.4489 38.8254 26.4367 38.7137C26.4246 38.6021 26.3858 38.2538 26.3506 37.9397C26.3154 37.6257 26.2635 37.1575 26.2352 36.8993C26.207 36.6411 26.1151 35.8132 26.0311 35.0595C25.9471 34.3058 25.8755 33.6549 25.872 33.613C25.8662 33.543 25.8728 33.5362 25.9545 33.529C26.0033 33.5246 26.1346 33.5055 26.2461 33.4864C26.3576 33.4673 26.4531 33.456 26.4583 33.4612C26.4635 33.4664 26.4833 33.5655 26.5022 33.6814C26.5212 33.7973 26.571 34.1034 26.6129 34.3616C26.6549 34.6198 26.7633 35.2822 26.8539 35.8335C27.3137 38.633 27.4537 39.4726 27.4621 39.4809C27.471 39.4898 28.309 38.4741 28.3465 38.4089C28.3606 38.3845 27.1752 33.517 27.1089 33.3266C27.1026 33.3086 27.1116 33.2894 27.1288 33.2839C27.146 33.2784 27.2515 33.2459 27.3631 33.2117C27.6704 33.1174 28.0128 32.9767 28.3749 32.7959C28.5544 32.7061 28.7143 32.6378 28.7302 32.6439C28.7461 32.65 28.8574 32.8249 28.9775 33.0325C29.2097 33.4338 29.2527 33.5074 29.7993 34.4377C29.992 34.7657 30.3635 35.3995 30.6249 35.8462C30.8863 36.2928 31.1643 36.7673 31.2426 36.9006L31.3849 37.143L31.7217 37.1755C31.907 37.1934 32.1271 37.2177 32.2109 37.2294C32.4737 37.2663 32.782 37.286 32.782 37.2659C32.782 37.2553 32.7536 37.2095 32.719 37.1641C32.6843 37.1187 32.5758 36.9663 32.4778 36.8254C32.206 36.4347 32.02 36.1688 31.1712 34.958C30.7407 34.3439 30.3367 33.7672 30.2734 33.6764C30.2101 33.5857 29.971 33.2445 29.7422 32.9181C29.5132 32.5918 29.3207 32.3109 29.3142 32.294C29.3077 32.2771 29.4097 32.1826 29.5412 32.0839L29.78 31.9044L30.614 32.949C31.0727 33.5236 31.6482 34.2449 31.8929 34.5519C32.1376 34.859 32.357 35.1331 32.3806 35.161C32.4041 35.1889 32.765 35.64 33.1824 36.1634C33.5998 36.6868 33.9574 37.1278 33.9771 37.1433C33.9977 37.1596 34.2343 37.1843 34.5332 37.2013C35.1811 37.2381 35.764 37.2735 36.0911 37.2959L36.3419 37.313L36.325 37.011C36.3157 36.8449 36.297 36.5034 36.2834 36.2522C36.2698 36.001 36.2467 35.6014 36.232 35.3643L36.2053 34.9333L36.1244 34.8672C35.9464 34.722 32.441 31.9236 31.7236 31.354C31.3021 31.0193 30.9566 30.7393 30.9559 30.7319C30.9528 30.7004 31.2936 30.2635 31.3195 30.2658C31.3351 30.2672 31.7562 30.5613 32.2553 30.9193C34.4221 32.4736 35.0123 32.8972 35.5806 33.306C35.9124 33.5446 36.2082 33.7566 36.2378 33.7771C36.2912 33.814 36.2916 33.813 36.2766 33.6756C36.2682 33.5993 36.2488 33.4113 36.2335 33.2577C36.2181 33.1042 36.1948 32.8883 36.1816 32.7779C36.1684 32.6675 36.1576 32.5342 36.1576 32.4817V32.3861L35.7579 32.1468C34.1994 31.2137 31.6992 29.7072 31.6798 29.6896C31.6658 29.6769 31.7344 29.5057 31.8487 29.2679C32.032 28.8865 32.1706 28.5328 32.2615 28.2146C32.2843 28.1346 32.3115 28.064 32.3217 28.0576C32.332 28.0513 32.6882 28.1371 33.1132 28.2485C33.5383 28.3598 34.0574 28.4952 34.2667 28.5495C34.4761 28.6037 34.7588 28.6775 34.8949 28.7134C35.2982 28.8199 35.5852 28.8948 36.0688 29.02C36.3201 29.085 36.718 29.1887 36.9531 29.2503C37.1883 29.3119 37.3952 29.3538 37.4129 29.3433C37.5225 29.2788 38.4884 28.4857 38.4732 28.4727C38.463 28.4639 37.3981 28.2714 36.1069 28.0448C33.1166 27.52 32.9475 27.4902 32.7947 27.4614C32.7249 27.4482 32.6234 27.4301 32.5692 27.4211L32.4707 27.4049L32.4885 27.2734C32.4983 27.2011 32.5146 27.071 32.5248 26.9842C32.535 26.8975 32.5499 26.8199 32.558 26.8118C32.5661 26.8037 32.931 26.8379 33.369 26.8879C33.8069 26.9378 34.9362 27.0647 35.8784 27.1698C37.6065 27.3627 37.8008 27.3842 38.2389 27.432C38.3715 27.4465 38.6228 27.4754 38.7973 27.4963C38.9717 27.5172 39.1488 27.5345 39.1907 27.5347C39.2687 27.5351 39.281 27.5248 40.6628 26.2985C40.8442 26.1374 40.996 25.9974 41 25.9874C41.0039 25.9774 40.6899 25.6854 40.302 25.3385C39.9141 24.9916 39.5454 24.6598 39.4825 24.6013C39.2593 24.3932 39.2687 24.3974 39.0676 24.4173C38.8933 24.4346 38.2994 24.5 38.0612 24.5282C37.9283 24.5439 36.5867 24.6927 35.9038 24.7676C35.6456 24.7959 34.8175 24.8878 34.0637 24.9719C33.3099 25.056 32.6589 25.1275 32.617 25.131C32.547 25.1367 32.5402 25.13 32.5329 25.0484C32.5286 24.9995 32.5094 24.8683 32.4904 24.7568C32.4713 24.6453 32.459 24.5508 32.463 24.5468C32.47 24.5398 32.8369 24.4787 36.6894 23.844C37.6729 23.6819 38.4813 23.5456 38.4858 23.5411C38.4903 23.5366 38.3881 23.4462 38.2586 23.3401C37.6044 22.8045 37.3978 22.6376 37.3892 22.6376C37.384 22.6376 36.2567 22.9167 34.8841 23.2579C33.5116 23.599 32.3671 23.8817 32.3409 23.8859C32.3033 23.8921 32.2856 23.867 32.2566 23.7669C32.166 23.4537 32.0258 23.1005 31.836 22.7068C31.7127 22.4511 31.6402 22.2724 31.6543 22.2592C31.6673 22.2471 31.8492 22.137 32.0586 22.0145C32.268 21.8921 32.5307 21.7384 32.6424 21.6731C32.754 21.6078 33.0567 21.431 33.315 21.2802C33.5732 21.1294 33.8645 20.9583 33.9622 20.9C34.0599 20.8416 34.5916 20.5294 35.1437 20.2062L36.1476 19.6184L36.1801 19.2819C36.198 19.0968 36.2223 18.8768 36.234 18.793C36.2695 18.54 36.2909 18.222 36.2724 18.222C36.2629 18.222 36.1589 18.2906 36.0414 18.3743C35.7272 18.5982 35.4308 18.8073 35.2439 18.937C35.1532 18.9999 34.5764 19.4035 33.9622 19.8338C31.5173 21.5466 31.3311 21.6762 31.2944 21.6904C31.2667 21.7011 30.9284 21.2703 30.9299 21.2263C30.9303 21.2139 31.2687 20.9354 31.6819 20.6075C32.0951 20.2795 32.446 19.9994 32.4616 19.9851C32.4773 19.9709 32.6271 19.8501 32.7947 19.7169C34.5919 18.2869 36.148 17.0411 36.1609 17.022C36.1696 17.009 36.1844 16.8483 36.1936 16.6649C36.2028 16.4815 36.221 16.1716 36.2341 15.9762C36.2961 15.0489 36.3152 14.6916 36.3034 14.6798C36.2964 14.6727 36.0636 14.6788 35.7863 14.6933C34.5731 14.7569 34.3313 14.7704 34.1386 14.7854L33.9343 14.8013L31.8416 17.4237C30.6906 18.8661 29.7428 20.0469 29.7354 20.0477C29.7042 20.0511 29.2669 19.7102 29.2692 19.6842C29.2707 19.6686 29.5668 19.2447 29.9273 18.7423C30.7382 17.6122 31.1588 17.0263 31.7648 16.1825C32.7088 14.8682 32.8041 14.7338 32.7976 14.7272C32.7909 14.7206 32.6673 14.7318 31.8244 14.816L31.3871 14.8596L31.0873 15.3545C30.9224 15.6266 30.3157 16.6344 29.739 17.594C29.1624 18.5535 28.681 19.3386 28.6692 19.3386C28.6574 19.3386 28.523 19.2764 28.3705 19.2004C27.9555 18.9933 27.2783 18.7296 27.1616 18.7296C27.1452 18.7296 27.1127 18.7153 27.0894 18.6979C27.0506 18.6687 27.0575 18.6268 27.1743 18.184C27.3085 17.675 27.4234 17.2362 27.7058 16.1538C27.7476 15.9933 27.8156 15.7335 27.8568 15.5765C28.2573 14.0491 28.3632 13.6203 28.3468 13.5924C28.2823 13.4833 27.4884 12.517 27.4756 12.532C27.4627 12.547 27.049 14.8641 26.6521 17.1435C26.4483 18.3135 26.4125 18.5085 26.3989 18.5221C26.3909 18.5301 26.3046 18.5229 26.207 18.5062C26.1095 18.4895 25.9928 18.4756 25.9477 18.4754C25.9026 18.4752 25.8514 18.466 25.8339 18.4549C25.8092 18.4392 25.8437 18.0653 25.9929 16.736C26.2278 14.6423 26.2503 14.4411 26.2851 14.1237C26.3004 13.9841 26.323 13.7786 26.3354 13.6669C26.3478 13.5553 26.3698 13.3554 26.3843 13.2228C26.3989 13.0902 26.4395 12.7305 26.4745 12.4235C26.5096 12.1164 26.5381 11.8366 26.5379 11.8017C26.5377 11.7563 26.4325 11.6197 26.1663 11.3196C25.9621 11.0893 25.7147 10.8095 25.6166 10.6979C25.5185 10.5862 25.3517 10.3994 25.2458 10.2827C25.14 10.1661 25.0443 10.0547 25.0332 10.0353C25.022 10.0159 25.0032 10 24.9914 10C24.9796 10 24.6404 10.367 24.2376 10.8156Z" stroke="#FFF5EB" stroke-width="1.25"/>
</svg>
