<svg width="50" height="50" viewBox="0 0 50 50" fill="none" xmlns="http://www.w3.org/2000/svg">
<circle cx="25" cy="25" r="25" fill="#FAC80A"/>
<g clip-path="url(#clip0_3543_6042)">
<path d="M40.324 20.261C37.7693 18.1541 34.5614 17.0012 31.25 17H31V19H31.25C33.858 19 36.405 19.837 38.496 21.372C37.8295 23.0258 36.8081 24.513 35.5039 25.7288C34.1997 26.9446 32.6444 27.8592 30.948 28.408C30.9827 28.0047 31 27.598 31 27.188C31 19.366 24.635 13 16.812 13C15.883 13 14.956 13.09 14.055 13.268L13.398 13.398L13.268 14.055C13.0897 14.9632 12.9999 15.8865 13 16.812C13 20.936 14.78 24.643 17.598 27.238C17.2073 28.5411 17.0059 29.8936 17 31.254L17.001 31.255C17.0032 34.565 18.156 37.7714 20.262 40.325L20.701 40.855L21.353 40.635C23.6134 39.8726 25.6449 38.5523 27.2595 36.7963C28.8741 35.0403 30.0196 32.9053 30.59 30.589C32.9061 30.0185 35.0409 28.8729 36.7967 27.2583C38.5526 25.6437 39.8727 23.6123 40.635 21.352L40.855 20.7L40.324 20.261ZM21.372 38.496C19.8321 36.3941 19.0014 33.8566 19 31.251C19 30.339 19.113 29.455 19.303 28.599C21.9798 30.4007 25.1936 31.2299 28.408 30.948C27.8592 32.6444 26.9446 34.1997 25.7288 35.5039C24.513 36.8081 23.0258 37.8295 21.372 38.496ZM28.882 28.883C28.3267 28.9603 27.762 28.9993 27.188 29C24.473 29 21.97 28.096 19.941 26.588C20.796 24.5198 22.1948 22.7216 23.989 21.384L22.709 19.854C20.8488 21.256 19.3593 23.0912 18.37 25.2C17.101 23.8745 16.149 22.2785 15.5855 20.5321C15.0221 18.7857 14.8619 16.9342 15.117 15.117C15.6785 15.038 16.2449 14.9989 16.812 15C23.532 15 29 20.468 29 27.188C29 27.7627 28.96 28.3277 28.882 28.883Z" fill="#FFF5EB"/>
<path d="M29 13C30.1046 13 31 12.1046 31 11C31 9.89543 30.1046 9 29 9C27.8954 9 27 9.89543 27 11C27 12.1046 27.8954 13 29 13Z" fill="#FFF5EB"/>
<path d="M36 37C37.1046 37 38 36.1046 38 35C38 33.8954 37.1046 33 36 33C34.8954 33 34 33.8954 34 35C34 36.1046 34.8954 37 36 37Z" fill="#FFF5EB"/>
<path d="M11 31C12.1046 31 13 30.1046 13 29C13 27.8954 12.1046 27 11 27C9.89543 27 9 27.8954 9 29C9 30.1046 9.89543 31 11 31Z" fill="#FFF5EB"/>
</g>
<defs>
<clipPath id="clip0_3543_6042">
<rect width="32" height="32" fill="white" transform="translate(9 9)"/>
</clipPath>
</defs>
</svg>
