<svg width="50" height="50" viewBox="0 0 50 50" fill="none" xmlns="http://www.w3.org/2000/svg">
<circle cx="25" cy="25" r="25" fill="#FAC80A"/>
<path d="M16.75 15.6562C16.75 15.0761 16.9805 14.5197 17.3907 14.1095C17.8009 13.6992 18.3573 13.4688 18.9375 13.4688C19.5177 13.4688 20.0741 13.6992 20.4843 14.1095C20.8945 14.5197 21.125 15.0761 21.125 15.6562C21.125 16.2364 20.8945 16.7928 20.4843 17.203C20.0741 17.6133 19.5177 17.8438 18.9375 17.8438C18.3573 17.8438 17.8009 17.6133 17.3907 17.203C16.9805 16.7928 16.75 16.2364 16.75 15.6562ZM18.9375 11.2812C17.7772 11.2813 16.6644 11.7422 15.8439 12.5627C15.0234 13.3831 14.5625 14.4959 14.5625 15.6562C14.5625 16.8166 15.0234 17.9294 15.8439 18.7498C16.6644 19.5703 17.7772 20.0312 18.9375 20.0312C20.0978 20.0312 21.2106 19.5703 22.0311 18.7498C22.8516 17.9294 23.3125 16.8166 23.3125 15.6562C23.3125 14.4959 22.8516 13.3831 22.0311 12.5627C21.2106 11.7422 20.0978 11.2812 18.9375 11.2812ZM12.9219 22.2188C12.1967 22.2188 11.5012 22.5068 10.9884 23.0196C10.4756 23.5324 10.1875 24.2279 10.1875 24.9531V25.2266C10.1875 25.5273 10.1875 27.2445 11.3403 28.9016C12.1683 30.0916 13.5092 31.1405 15.6048 31.6797C16.0263 30.8713 16.6897 30.2147 17.5025 29.8017C14.9541 29.5272 13.7433 28.5253 13.1363 27.6525C12.6479 26.937 12.383 26.0927 12.375 25.2266V24.9531C12.375 24.8081 12.4326 24.669 12.5352 24.5664C12.6377 24.4639 12.7768 24.4062 12.9219 24.4062H19.4844C19.4844 23.6341 19.6298 22.8969 19.8945 22.2188H12.9219ZM39.6597 28.9016C38.8317 30.0916 37.4908 31.1405 35.3952 31.6797C34.9737 30.8713 34.3103 30.2147 33.4975 29.8017C36.0459 29.5272 37.2567 28.5253 37.8638 27.6525C38.3521 26.937 38.617 26.0927 38.625 25.2266V24.9531C38.625 24.8081 38.5674 24.669 38.4648 24.5664C38.3623 24.4639 38.2232 24.4062 38.0781 24.4062H31.5156C31.5156 23.6341 31.3702 22.8969 31.1055 22.2188H38.0781C38.8033 22.2188 39.4988 22.5068 40.0116 23.0196C40.5244 23.5324 40.8125 24.2279 40.8125 24.9531V25.2266C40.8125 25.5273 40.8125 27.2445 39.6597 28.9016ZM29.875 15.6562C29.875 15.0761 30.1055 14.5197 30.5157 14.1095C30.9259 13.6992 31.4823 13.4688 32.0625 13.4688C32.6427 13.4688 33.1991 13.6992 33.6093 14.1095C34.0195 14.5197 34.25 15.0761 34.25 15.6562C34.25 16.2364 34.0195 16.7928 33.6093 17.203C33.1991 17.6133 32.6427 17.8438 32.0625 17.8438C31.4823 17.8438 30.9259 17.6133 30.5157 17.203C30.1055 16.7928 29.875 16.2364 29.875 15.6562ZM32.0625 11.2812C30.9022 11.2813 29.7894 11.7422 28.9689 12.5627C28.1484 13.3831 27.6875 14.4959 27.6875 15.6562C27.6875 16.8166 28.1484 17.9294 28.9689 18.7498C29.7894 19.5703 30.9022 20.0312 32.0625 20.0312C33.2228 20.0312 34.3356 19.5703 35.1561 18.7498C35.9766 17.9294 36.4375 16.8166 36.4375 15.6562C36.4375 14.4959 35.9766 13.3831 35.1561 12.5627C34.3356 11.7422 33.2228 11.2812 32.0625 11.2812ZM25.5 22.2188C24.9198 22.2188 24.3634 22.4492 23.9532 22.8595C23.543 23.2697 23.3125 23.8261 23.3125 24.4062C23.3125 24.9864 23.543 25.5428 23.9532 25.953C24.3634 26.3633 24.9198 26.5938 25.5 26.5938C26.0802 26.5938 26.6366 26.3633 27.0468 25.953C27.457 25.5428 27.6875 24.9864 27.6875 24.4062C27.6875 23.8261 27.457 23.2697 27.0468 22.8595C26.6366 22.4492 26.0802 22.2188 25.5 22.2188ZM21.125 24.4062C21.125 23.2459 21.5859 22.1331 22.4064 21.3127C23.2269 20.4922 24.3397 20.0312 25.5 20.0312C26.6603 20.0312 27.7731 20.4922 28.5936 21.3127C29.4141 22.1331 29.875 23.2459 29.875 24.4062C29.875 25.5666 29.4141 26.6794 28.5936 27.4998C27.7731 28.3203 26.6603 28.7812 25.5 28.7812C24.3397 28.7812 23.2269 28.3203 22.4064 27.4998C21.5859 26.6794 21.125 25.5666 21.125 24.4062ZM16.75 33.7031C16.75 32.9779 17.0381 32.2824 17.5509 31.7696C18.0637 31.2568 18.7592 30.9688 19.4844 30.9688H31.5156C31.8747 30.9688 32.2303 31.0395 32.562 31.1769C32.8938 31.3143 33.1952 31.5157 33.4491 31.7696C33.703 32.0235 33.9044 32.325 34.0419 32.6567C34.1793 32.9885 34.25 33.344 34.25 33.7031V33.9766C34.25 34.2773 34.25 35.9945 33.0972 37.6516C31.8941 39.3808 29.6081 40.8125 25.5 40.8125C21.3919 40.8125 19.1059 39.3808 17.9028 37.6516C16.75 35.9945 16.75 34.2784 16.75 33.9766V33.7031ZM19.4844 33.1562C19.3393 33.1562 19.2002 33.2139 19.0977 33.3164C18.9951 33.419 18.9375 33.5581 18.9375 33.7031V33.9766C18.9375 34.157 18.9386 35.3109 19.6988 36.4025C20.4097 37.4252 21.9519 38.625 25.5 38.625C29.0481 38.625 30.5903 37.4252 31.3013 36.4025C31.7896 35.687 32.0545 34.8427 32.0625 33.9766V33.7031C32.0625 33.5581 32.0049 33.419 31.9023 33.3164C31.7998 33.2139 31.6607 33.1562 31.5156 33.1562H19.4844Z" fill="#FFF5EB"/>
</svg>
